<?xml version="1.0" standalone="no"?>
<!DOCTYPE svg PUBLIC "-//W3C//DTD SVG 20010904//EN"
 "http://www.w3.org/TR/2001/REC-SVG-20010904/DTD/svg10.dtd">
<svg version="1.0" xmlns="http://www.w3.org/2000/svg"
 width="1183.000000pt" height="1183.000000pt" viewBox="0 0 1183.000000 1183.000000"
 preserveAspectRatio="xMidYMid meet">
<metadata>
Created by potrace 1.11, written by Peter Selinger 2001-2013
</metadata>
<g transform="translate(0.000000,1183.000000) scale(0.100000,-0.100000)"
fill="#000000" stroke="none">
<path d="M0 6685 c0 -5086 0 -5145 19 -5145 11 0 23 -5 26 -10 4 -6 -5 -10
-19 -10 l-26 0 0 -760 0 -760 2762 0 c2071 0 2765 3 2775 12 10 8 17 8 25 0
18 -18 58 -15 58 4 0 8 4 13 8 10 4 -2 6 11 4 30 -2 19 0 34 6 34 6 0 13 -15
15 -32 l4 -33 1 33 c2 35 25 53 45 33 17 -17 31 -13 17 4 -7 8 -9 16 -4 16 5
1 15 2 21 3 7 0 13 6 13 11 0 6 -6 11 -13 11 -30 4 -57 17 -57 29 0 7 -6 15
-12 18 -7 2 -10 8 -6 12 4 4 16 -2 28 -13 30 -28 108 -34 125 -9 7 10 16 17
21 16 5 -1 20 3 34 10 l25 11 -27 -3 c-19 -3 -28 0 -28 10 0 10 9 12 38 8 l37
-6 -25 16 -25 16 33 -5 c18 -3 32 -1 32 4 0 6 -4 10 -10 10 -20 0 -9 18 14 22
16 3 23 1 20 -7 -3 -8 6 -12 26 -13 16 0 30 4 30 9 0 5 7 9 16 9 10 0 14 -6
11 -14 -4 -10 -1 -13 9 -9 11 4 13 15 10 37 -3 17 -3 25 0 19 8 -18 37 -16 31
1 -8 20 18 28 48 14 31 -14 62 6 44 29 -16 18 -8 24 41 30 46 6 49 25 4 34
l-29 7 27 1 c14 0 28 7 31 14 2 6 8 8 13 4 5 -4 2 -12 -6 -17 -8 -6 -10 -10
-4 -10 19 0 37 27 23 35 -8 6 -7 10 4 17 9 5 14 15 11 23 -4 9 0 15 10 15 9 0
16 5 16 10 0 6 14 10 30 10 17 0 30 5 30 10 0 6 9 10 20 10 11 0 20 4 20 9 0
4 18 5 40 1 34 -6 42 -4 50 11 14 26 12 37 -4 16 -12 -15 -14 -16 -20 -2 -3 8
-18 16 -33 16 -23 1 -20 3 12 9 22 5 50 6 63 3 12 -3 22 0 22 6 0 6 11 11 25
11 20 0 25 5 25 25 0 26 25 36 32 13 3 -7 12 -9 23 -4 17 6 15 9 -15 23 -43
21 -45 22 -38 29 4 3 16 0 28 -6 16 -9 25 -8 37 1 13 11 18 10 30 -6 15 -20
15 -20 9 2 -6 18 -2 22 24 28 16 4 30 13 30 20 0 8 13 22 30 32 30 17 30 17 8
29 -21 11 -20 12 16 23 40 11 61 7 51 -10 -4 -5 3 -9 14 -9 23 0 26 7 11 30
-5 9 -5 19 1 27 6 7 7 18 3 24 -5 9 -2 10 10 6 10 -4 19 -1 22 8 12 31 21 13
18 -32 -3 -36 -2 -43 5 -28 7 14 10 15 11 5 0 -12 4 -11 15 4 15 19 15 19 16
-5 1 -20 2 -19 10 10 11 35 4 55 -10 32 -6 -9 -11 -10 -15 -2 -4 6 -4 11 0 11
4 0 -1 6 -12 14 -22 17 -19 21 19 30 21 5 27 3 27 -9 0 -12 4 -14 19 -5 31 16
41 12 41 -17 l0 -27 22 24 c13 14 23 27 23 30 0 13 34 40 49 40 9 0 16 9 16
21 0 12 4 18 11 13 6 -3 15 0 20 7 7 11 9 10 9 -3 0 -10 5 -18 10 -18 6 0 10
5 10 10 0 6 10 10 21 10 16 0 20 5 17 18 -6 22 21 42 56 42 17 0 27 -8 34 -27
10 -26 10 -26 11 -5 1 13 7 22 14 21 34 -4 77 2 77 12 0 8 -17 9 -55 4 -37 -4
-55 -3 -55 4 0 6 11 11 24 11 14 0 28 5 31 10 4 6 -5 10 -19 10 -28 0 -31 6
-16 30 8 12 13 13 30 3 11 -7 28 -13 39 -13 11 0 21 -7 23 -16 2 -13 12 -8 41
20 21 20 47 36 58 36 10 0 19 5 19 10 0 6 7 10 15 10 8 0 15 -9 15 -20 0 -11
6 -20 14 -20 8 0 17 -6 19 -12 4 -9 6 -10 6 -1 1 6 -6 18 -14 26 -8 8 -11 17
-8 21 4 3 1 6 -5 6 -18 0 -14 27 4 34 10 4 14 15 12 33 -2 15 2 28 10 31 8 2
12 -2 10 -13 -2 -10 3 -20 11 -23 9 -3 11 1 7 16 -6 18 -1 22 36 29 33 7 44 6
46 -4 2 -7 9 -13 16 -13 19 0 11 51 -10 63 -28 15 -28 15 -14 32 7 9 9 15 4
14 -5 -1 -16 0 -24 4 -8 3 -22 8 -30 11 -8 4 0 4 18 1 29 -4 32 -2 29 18 -2
12 -2 16 0 10 3 -7 17 -13 33 -13 19 0 33 -7 40 -20 6 -11 17 -20 25 -20 8 0
15 -8 15 -18 0 -19 -39 -26 -41 -7 0 9 -17 -22 -18 -36 -1 -3 10 -4 24 -1 13
2 33 1 42 -4 22 -9 63 -12 63 -4 0 3 -5 11 -12 18 -9 9 -9 12 -1 12 7 0 15 -9
18 -20 4 -14 16 -21 38 -22 62 -3 66 -4 73 -10 3 -4 20 0 37 8 25 13 31 14 39
2 5 -9 7 -4 4 14 -6 38 19 58 42 34 16 -17 16 -18 -8 -12 -14 3 -19 3 -12 0 6
-3 12 -12 12 -19 0 -14 22 -25 48 -24 11 0 8 4 -8 10 -20 8 -22 12 -10 19 8 5
23 7 33 4 13 -4 19 2 23 25 6 28 10 31 45 31 32 0 39 3 39 20 0 15 -7 20 -25
20 -14 0 -25 5 -25 10 0 6 11 10 25 10 27 0 34 15 10 24 -15 6 -21 26 -7 26
18 0 34 -48 34 -104 l1 -61 9 63 c6 40 14 62 21 59 7 -2 11 -13 9 -23 -2 -10
-5 -35 -7 -54 -3 -32 -3 -33 3 -5 7 28 9 30 42 24 l35 -6 -32 -2 c-22 -1 -33
-6 -33 -16 0 -10 11 -15 33 -16 l32 -1 -30 -8 -30 -8 30 -1 c48 -1 75 9 75 30
0 11 5 19 11 19 5 0 8 4 5 9 -8 13 67 71 93 71 5 0 12 -8 14 -17 4 -14 5 -12
6 5 1 14 -5 22 -15 22 -10 0 -14 7 -12 18 2 9 10 16 16 15 7 -2 12 2 12 7 0 6
7 10 16 10 14 0 16 -8 12 -45 -6 -48 6 -62 16 -20 5 20 13 25 37 25 20 0 29
-4 26 -12 -2 -7 3 -19 12 -25 15 -12 14 -14 -2 -27 -11 -8 -14 -17 -8 -20 22
-14 36 52 17 82 -8 13 18 41 38 42 4 0 6 11 4 25 -3 14 -1 25 3 25 15 0 10
-42 -7 -61 -22 -24 -10 -43 17 -26 17 10 22 9 34 -7 10 -13 21 -17 39 -12 15
3 26 11 26 16 0 6 8 10 19 10 10 0 24 7 31 15 15 18 36 19 44 3 5 -11 7 -11
12 0 3 6 19 12 35 12 25 0 29 4 29 29 0 23 5 30 28 34 31 6 48 -5 36 -25 -12
-19 -13 -67 -2 -74 5 -3 8 1 6 9 -2 9 2 15 7 14 6 -1 9 -8 9 -14 -1 -7 2 -13
7 -13 5 0 9 11 9 25 0 19 -5 25 -22 25 -16 0 -19 3 -11 11 7 7 17 8 30 1 13
-7 28 -6 50 3 17 7 34 11 37 8 3 -4 6 1 6 10 0 20 21 22 38 5 9 -9 12 -8 13 7
0 19 1 18 16 -2 15 -23 43 -31 43 -14 0 5 -8 17 -17 27 -9 9 -18 25 -18 35 -2
17 5 19 59 18 34 -1 87 2 119 6 47 6 55 10 46 21 -9 11 -7 14 10 14 13 0 25 9
31 23 8 20 9 21 10 2 1 -16 4 -15 14 9 l13 29 11 -29 10 -29 1 28 c1 20 10 33
33 47 43 26 58 26 24 -1 -14 -11 -24 -24 -21 -29 3 -5 1 -20 -5 -35 -12 -32 7
-43 41 -24 23 12 23 12 4 20 -17 7 -16 8 7 8 38 1 46 21 9 21 -38 0 -41 20 -3
21 24 0 25 1 7 9 -18 7 -19 8 -2 15 21 9 23 25 2 25 -8 0 -15 4 -15 9 0 5 7
14 15 21 8 7 15 19 15 26 0 8 5 14 10 14 6 0 10 14 10 30 0 17 -5 30 -12 30
-6 0 -9 2 -7 5 12 11 48 -9 52 -29 2 -12 3 -9 2 7 -2 37 19 29 23 -9 2 -16 8
-34 13 -40 5 -6 4 -15 -2 -21 -7 -7 -5 -14 6 -23 12 -10 15 -10 15 3 0 8 7 18
16 21 13 5 15 2 11 -13 -3 -14 -1 -18 10 -14 8 3 12 12 9 20 -3 8 -6 17 -6 19
0 2 -9 4 -20 4 -22 0 -28 19 -7 22 6 0 17 2 22 2 21 3 34 17 28 31 -3 9 1 15
11 15 18 0 22 -15 6 -25 -15 -9 -12 -19 11 -33 17 -11 20 -11 17 4 -2 9 5 21
14 27 13 9 21 7 37 -7 12 -11 21 -14 21 -8 0 7 14 12 30 12 20 0 30 5 30 15 0
8 -4 15 -9 15 -5 0 -11 15 -13 33 -4 34 -4 34 40 34 l44 0 -5 -41 c-6 -43 5
-78 17 -57 13 20 39 13 33 -9 -3 -13 0 -20 9 -20 8 0 14 -4 14 -10 0 -5 5 -10
10 -10 6 0 10 16 10 35 0 19 8 44 17 55 21 24 63 27 63 5 0 -8 -5 -15 -11 -15
-5 0 -7 -5 -4 -10 4 -7 13 -6 27 1 29 15 114 15 133 -1 8 -7 18 -10 22 -6 3 3
1 6 -5 6 -16 0 -33 36 -26 54 3 9 13 16 21 16 13 0 13 -3 3 -15 -10 -12 -9
-16 4 -21 9 -3 16 -13 16 -21 0 -12 3 -13 15 -3 8 6 19 9 25 5 6 -3 10 3 10
14 0 25 0 25 36 6 32 -16 55 -5 35 18 -9 11 -8 17 4 27 9 7 13 21 10 31 -4 11
-2 19 5 19 6 0 9 -4 6 -9 -4 -5 0 -11 6 -14 11 -3 10 -7 0 -19 -10 -13 -9 -18
3 -28 16 -14 19 -7 15 38 -2 25 15 29 36 8 10 -11 22 -12 44 -6 19 5 32 5 36
-2 4 -5 19 -8 35 -6 28 4 39 -5 19 -17 -5 -3 -30 -7 -55 -9 -55 -3 -72 -16
-21 -16 24 0 39 -5 43 -16 4 -12 8 -13 14 -3 11 19 49 22 49 4 0 -21 20 -19
21 3 1 11 4 9 9 -8 6 -17 8 -19 9 -7 1 10 8 20 16 23 17 7 21 44 4 44 -8 0 -8
5 1 15 18 22 30 18 30 -10 0 -16 6 -25 15 -25 10 0 15 -10 15 -30 0 -16 5 -30
10 -30 6 0 10 13 10 29 0 16 3 36 6 45 8 20 53 21 60 1 12 -30 80 -7 117 40 5
5 7 -5 4 -23 -2 -22 1 -32 10 -32 8 0 11 5 8 11 -4 6 2 13 14 16 12 3 21 13
21 24 0 11 5 19 11 19 5 0 8 -4 5 -9 -3 -5 6 -9 19 -9 14 0 25 5 25 10 0 5 4
6 10 3 15 -9 -12 -34 -30 -27 -13 5 -13 4 0 -9 9 -9 22 -18 30 -22 8 -3 2 -6
-14 -6 -22 -1 -27 -4 -19 -12 8 -8 17 -8 31 0 26 14 72 14 72 1 0 -5 -4 -10
-10 -10 -17 0 -11 -15 13 -29 20 -13 21 -13 8 2 -20 25 3 47 50 47 35 0 39 3
39 25 0 36 30 33 31 -2 1 -16 1 -32 0 -37 -1 -5 6 -5 16 0 28 13 213 17 213 5
0 -6 -9 -11 -21 -11 -11 0 -18 -4 -14 -10 9 -15 53 10 59 34 3 11 6 2227 6
4924 l0 4902 -1875 0 c-1619 0 -1874 -2 -1869 -14 4 -11 0 -13 -15 -9 -12 3
-21 9 -21 14 0 6 -295 9 -710 9 -616 -1 -710 -3 -710 -15 0 -19 -11 -19 -36 0
-29 22 -3946 23 -3938 1 4 -11 0 -13 -15 -9 -12 3 -24 9 -27 14 -3 5 -571 9
-1310 9 l-1304 0 0 -5145z m9436 5090 c8 -21 -3 -34 -26 -28 -32 8 -23 39 13
42 4 1 10 -6 13 -14z m-2829 -28 c-2 -6 -7 -12 -13 -14 -15 -4 -37 14 -30 25
8 13 48 3 43 -11z m758 3 c8 -13 -5 -13 -25 0 -13 8 -13 10 2 10 9 0 20 -4 23
-10z m-1971 -6 c19 -7 22 -34 4 -34 -22 0 -41 17 -34 29 8 13 9 13 30 5z
m2886 -54 c0 -5 -7 -7 -15 -4 -8 4 -15 8 -15 10 0 2 7 4 15 4 8 0 15 -4 15
-10z m-1650 -30 c0 -5 -7 -7 -15 -4 -8 4 -15 8 -15 10 0 2 7 4 15 4 8 0 15 -4
15 -10z m265 -109 c3 -6 -4 -9 -15 -8 -11 1 -20 5 -20 9 0 11 28 10 35 -1z
m-1420 -29 c-3 -3 -11 0 -18 7 -9 10 -8 11 6 5 10 -3 15 -9 12 -12z m1675 -77
c0 -8 -8 -11 -20 -8 -20 5 -25 15 -14 26 9 9 34 -4 34 -18z m2450 -7 c0 -10
-3 -17 -7 -15 -5 2 -16 7 -27 11 -14 5 -16 9 -6 21 15 18 40 8 40 -17z m-8685
-58 c3 -6 -1 -7 -9 -4 -18 7 -21 14 -7 14 6 0 13 -4 16 -10z m2559 -6 c23 -9
20 -23 -4 -17 -11 3 -20 9 -20 14 0 11 3 11 24 3z m4932 -11 c-10 -11 -36 -12
-36 -2 0 5 10 9 22 9 12 0 18 -3 14 -7z m609 -83 c3 -6 -1 -7 -9 -4 -18 7 -21
14 -7 14 6 0 13 -4 16 -10z m-6096 -36 c2 -2 2 -6 0 -9 -8 -7 -49 7 -49 17 0
8 38 2 49 -8z m4855 -12 c2 -4 -4 -8 -15 -8 -10 0 -19 4 -19 8 0 4 6 8 14 8 8
0 17 -4 20 -8z m766 -38 c0 -13 -3 -14 -13 -5 -8 6 -17 8 -20 4 -4 -3 -7 -1
-7 5 0 7 9 12 20 12 12 0 20 -7 20 -16z m-546 -43 c4 -5 -3 -7 -14 -4 -23 6
-26 13 -6 13 8 0 17 -4 20 -9z m-2376 -23 c15 -15 16 -55 1 -63 -5 -4 -21 -4
-34 -1 -25 6 -43 45 -30 65 8 15 48 14 63 -1z m3850 -70 c3 -13 -3 -18 -22
-18 -20 0 -26 5 -26 21 0 15 5 20 22 17 13 -2 24 -11 26 -20z m-120 -16 c3
-16 -2 -22 -17 -22 -26 0 -36 17 -20 36 16 19 33 13 37 -14z m-4208 -38 c0
-17 -5 -17 -31 -3 -11 5 -17 14 -14 19 8 13 45 0 45 -16z m-801 2 c19 -23 -5
-28 -30 -6 -24 19 -24 19 -3 20 12 0 27 -6 33 -14z m-61 -18 c11 -11 17 -48 8
-48 -24 0 -56 23 -56 40 0 23 29 27 48 8z m217 -18 c3 -5 -3 -10 -14 -10 -12
0 -21 5 -21 10 0 6 6 10 14 10 8 0 18 -4 21 -10z m437 -18 c-19 -6 -44 6 -37
18 4 7 14 6 28 -2 14 -7 17 -13 9 -16z m5858 -60 c0 -5 -7 -9 -15 -9 -8 0 -15
4 -15 9 0 4 7 8 15 8 8 0 15 -4 15 -8z m-250 -12 c0 -5 -6 -10 -14 -10 -8 0
-18 5 -21 10 -3 6 3 10 14 10 12 0 21 -4 21 -10z m-610 -21 c0 -5 -9 -9 -20
-9 -19 0 -26 11 -14 23 8 8 34 -3 34 -14z m-9533 -12 c4 -7 0 -8 -11 -4 -10 4
-22 7 -27 7 -5 0 -9 4 -9 9 0 12 38 2 47 -12z m11046 16 c-7 -2 -19 -2 -25 0
-7 3 -2 5 12 5 14 0 19 -2 13 -5z m-8613 -13 c13 -9 13 -10 0 -10 -8 0 -22 5
-30 10 -13 9 -13 10 0 10 8 0 22 -5 30 -10z m3920 -40 c8 -5 12 -12 9 -15 -8
-8 -39 5 -39 16 0 11 11 11 30 -1z m-5502 -43 c18 -38 7 -50 -28 -32 -35 18
-44 31 -36 51 9 24 49 12 64 -19z m2891 -37 c10 -5 21 -17 25 -26 5 -13 2 -15
-21 -9 -29 7 -45 23 -37 37 7 10 11 10 33 -2z m-1504 -20 c7 -12 -2 -12 -30 0
-19 8 -19 9 2 9 12 1 25 -3 28 -9z m1422 -46 c-3 -3 -12 -4 -19 -1 -8 3 -5 6
6 6 11 1 17 -2 13 -5z m3313 -20 c0 -16 -9 -18 -30 -4 -13 9 -13 11 0 19 17
12 30 5 30 -15z m-5980 -30 c0 -2 -9 0 -20 6 -11 6 -20 13 -20 16 0 2 9 0 20
-6 11 -6 20 -13 20 -16z m2650 6 c0 -5 -7 -7 -15 -4 -8 4 -15 8 -15 10 0 2 7
4 15 4 8 0 15 -4 15 -10z m4940 -8 c0 -5 -7 -9 -15 -9 -8 0 -15 4 -15 9 0 4 7
8 15 8 8 0 15 -4 15 -8z m-6840 -32 c0 -5 -9 -6 -20 -3 -11 3 -20 9 -20 13 0
5 9 6 20 3 11 -3 20 -9 20 -13z m3475 10 c8 -13 -15 -13 -35 0 -12 8 -11 10 7
10 12 0 25 -4 28 -10z m5070 -9 c3 -5 1 -13 -5 -16 -15 -9 -43 3 -35 15 8 13
32 13 40 1z m-2925 -21 c11 -6 12 -12 4 -20 -13 -13 -44 -2 -44 16 0 16 18 18
40 4z m-4000 -30 c8 -5 12 -12 9 -15 -8 -8 -39 5 -39 16 0 11 11 11 30 -1z
m6455 -25 c0 -5 -10 -11 -22 -13 -16 -2 -23 2 -23 13 0 11 7 15 23 13 12 -2
22 -7 22 -13z m-3998 -11 c-3 -3 -12 -4 -19 -1 -8 3 -5 6 6 6 11 1 17 -2 13
-5z m-3691 -20 c17 -14 17 -15 1 -10 -10 3 -23 6 -28 6 -5 0 -9 5 -9 10 0 14
13 12 36 -6z m1278 10 c23 -9 20 -23 -4 -17 -11 3 -20 9 -20 14 0 11 3 11 24
3z m1864 -41 c3 -20 0 -22 -20 -14 -32 12 -38 44 -6 39 15 -2 24 -11 26 -25z
m-2154 1 c9 -3 16 -12 16 -20 0 -16 -42 -4 -48 14 -4 13 8 15 32 6z m1016 -80
c0 -11 -6 -14 -22 -8 -28 8 -41 26 -26 36 16 9 48 -9 48 -28z m3516 -9 c10 -8
14 -15 7 -15 -19 0 -43 11 -43 21 0 13 14 11 36 -6z m-6951 -45 c3 -6 -1 -7
-9 -4 -18 7 -21 14 -7 14 6 0 13 -4 16 -10z m4330 -40 c3 -5 -1 -10 -9 -10 -8
0 -18 5 -21 10 -3 6 1 10 9 10 8 0 18 -4 21 -10z m-1285 -20 c8 -5 11 -10 5
-10 -5 0 -17 5 -25 10 -8 5 -10 10 -5 10 6 0 17 -5 25 -10z m1804 -116 c15 -6
23 -34 10 -34 -13 0 -44 21 -44 30 0 11 11 13 34 4z m-739 -34 c3 -5 -3 -10
-14 -10 -11 0 -23 5 -26 10 -3 6 3 10 14 10 11 0 23 -4 26 -10z m252 -60 c15
-31 7 -49 -20 -42 -31 7 -47 22 -47 42 0 35 49 35 67 0z m-2510 -17 c3 -7 -3
-9 -17 -6 -29 8 -37 25 -9 21 12 -1 24 -8 26 -15z m490 -39 c-7 -7 -37 7 -37
17 0 6 9 5 21 -1 11 -7 19 -14 16 -16z m-2331 -9 c10 -8 14 -15 8 -15 -5 0
-19 7 -30 15 -10 8 -14 15 -8 15 5 0 19 -7 30 -15z m5419 -175 c3 -5 4 -14 1
-19 -9 -13 -46 -1 -46 15 0 16 36 19 45 4z m1628 -27 c-7 -2 -19 -2 -25 0 -7
3 -2 5 12 5 14 0 19 -2 13 -5z m324 -39 c-3 -3 -12 -4 -19 -1 -8 3 -5 6 6 6
11 1 17 -2 13 -5z m488 -95 c4 -6 5 -12 2 -15 -7 -7 -37 7 -37 17 0 13 27 11
35 -2z m-3776 -696 c193 -375 351 -686 351 -690 0 -5 -146 -154 -325 -333
l-325 -325 0 -970 1 -970 685 -520 c377 -285 698 -526 713 -536 25 -15 28 -25
48 -150 12 -74 80 -509 153 -967 73 -458 130 -835 129 -836 -2 -2 -627 84
-1389 190 -762 106 -1398 194 -1415 194 -79 0 -166 -55 -200 -126 -24 -51 -22
-140 3 -191 25 -49 79 -97 124 -112 64 -20 2921 -412 2960 -406 20 4 135 59
255 124 120 65 506 272 857 461 351 189 654 357 673 373 40 35 59 68 69 122 4
22 12 43 18 47 6 4 59 8 119 8 121 0 116 -4 97 87 -6 26 -12 64 -13 83 -2 19
-100 550 -217 1180 l-215 1145 -327 380 c-181 209 -328 385 -328 392 0 23 664
1313 672 1305 9 -9 553 -1065 720 -1397 169 -336 1685 -3281 1704 -3310 9 -14
15 -27 13 -29 -55 -45 -218 -166 -334 -248 -1018 -719 -2221 -1207 -3365
-1367 -855 -119 -1841 -79 -2793 115 -1142 232 -2276 711 -3156 1334 l-119 84
26 46 c15 25 322 601 682 1280 l656 1235 194 5 c178 5 198 7 230 27 20 12 45
32 57 45 17 18 584 1141 661 1309 11 24 242 492 512 1039 271 547 556 1124
634 1282 77 157 144 283 147 280 3 -4 164 -314 358 -689z m606 687 c4 -6 -5
-10 -19 -10 -14 0 -26 5 -26 10 0 6 9 10 19 10 11 0 23 -4 26 -10z m2315 -40
c8 -5 13 -10 10 -11 -33 -6 -50 -4 -50 8 0 15 19 17 40 3z m-525 -40 c3 -5 -3
-10 -14 -10 -12 0 -21 5 -21 10 0 6 6 10 14 10 8 0 18 -4 21 -10z m3888 3 c-7
-2 -19 -2 -25 0 -7 3 -2 5 12 5 14 0 19 -2 13 -5z m-9943 -23 c8 -5 11 -10 5
-10 -5 0 -17 5 -25 10 -8 5 -10 10 -5 10 6 0 17 -5 25 -10z m2000 -30 c13 -9
13 -10 0 -10 -8 0 -22 5 -30 10 -13 9 -13 10 0 10 8 0 22 -5 30 -10z m8140
-18 c0 -5 -7 -9 -15 -9 -8 0 -15 4 -15 9 0 4 7 8 15 8 8 0 15 -4 15 -8z
m-10171 -36 c10 -12 8 -13 -8 -9 -12 3 -21 9 -21 14 0 14 16 11 29 -5z m7681
4 c0 -5 -11 -10 -25 -10 -14 0 -25 5 -25 10 0 6 11 10 25 10 14 0 25 -4 25
-10z m-6085 -18 c-3 -3 -11 0 -18 7 -9 10 -8 11 6 5 10 -3 15 -9 12 -12z
m4485 -34 c0 -15 -5 -18 -22 -13 -34 10 -45 24 -29 34 21 13 51 1 51 -21z
m1455 12 c3 -5 -3 -10 -14 -10 -12 0 -21 5 -21 10 0 6 6 10 14 10 8 0 18 -4
21 -10z m-6795 -70 c8 -5 12 -11 9 -14 -7 -8 -49 5 -49 15 0 12 21 11 40 -1z
m6834 -18 c2 -4 -4 -9 -15 -9 -10 -1 -19 2 -19 8 0 11 27 12 34 1z m-1108 -83
c3 -6 2 -14 -2 -19 -11 -10 -54 6 -54 20 0 13 47 13 56 -1z m-1346 -25 c0 -11
-5 -14 -16 -10 -9 3 -20 6 -25 6 -5 0 -9 5 -9 10 0 6 11 10 25 10 16 0 25 -6
25 -16z m738 -17 c17 -20 1 -36 -25 -26 -23 8 -29 20 -16 32 10 11 30 8 41 -6z
m-5538 -16 c15 -29 13 -33 -12 -25 -31 9 -49 24 -42 35 10 16 43 9 54 -10z
m1690 -1 c13 -9 13 -10 0 -10 -8 0 -22 5 -30 10 -13 9 -13 10 0 10 8 0 22 -5
30 -10z m3374 -16 c25 -9 19 -24 -9 -24 -16 0 -25 6 -25 15 0 16 9 19 34 9z
m-6448 -29 c15 -11 16 -14 3 -15 -8 0 -24 7 -35 15 -15 11 -16 14 -3 15 8 0
24 -7 35 -15z m665 -15 c30 -17 22 -30 -11 -19 -16 6 -30 15 -30 20 0 12 17
11 41 -1z m6107 -13 c3 -15 -1 -17 -25 -11 -35 8 -37 10 -28 24 10 17 49 8 53
-13z m-6693 -5 c-3 -3 -11 0 -18 7 -9 10 -8 11 6 5 10 -3 15 -9 12 -12z m8170
-2 c3 -5 -3 -10 -14 -10 -12 0 -21 5 -21 10 0 6 6 10 14 10 8 0 18 -4 21 -10z
m353 -27 c2 -8 -6 -13 -22 -13 -25 0 -33 10 -19 24 10 10 36 3 41 -11z m-6251
-226 c4 -7 0 -8 -11 -4 -10 4 -22 7 -27 7 -5 0 -9 4 -9 9 0 12 38 2 47 -12z
m851 -106 c3 -10 -2 -11 -19 -6 -39 12 -48 27 -15 23 16 -2 31 -9 34 -17z
m-768 -31 c8 -5 12 -11 9 -14 -7 -8 -49 5 -49 15 0 12 21 11 40 -1z m3804 -59
c4 -5 -3 -7 -14 -4 -23 6 -26 13 -6 13 8 0 17 -4 20 -9z m-4914 -61 c8 -5 11
-10 5 -10 -5 0 -17 5 -25 10 -8 5 -10 10 -5 10 6 0 17 -5 25 -10z m4657 -46
c2 -7 -6 -10 -22 -7 -14 3 -25 10 -25 15 0 13 43 6 47 -8z m2223 -24 c0 -5
-11 -10 -25 -10 -14 0 -25 5 -25 10 0 6 11 10 25 10 14 0 25 -4 25 -10z m-770
-96 c0 -16 -18 -18 -40 -4 -13 9 -13 11 -1 19 18 12 41 3 41 -15z m3616 -45
c10 -16 -9 -29 -33 -23 -13 4 -20 11 -16 20 6 17 39 19 49 3z m-3936 -109 c0
-5 -11 -10 -25 -10 -14 0 -25 5 -25 10 0 6 11 10 25 10 14 0 25 -4 25 -10z
m-4017 -20 c5 -4 5 -10 0 -13 -12 -7 -53 11 -53 23 0 12 38 4 53 -10z m-85
-42 c7 -7 12 -17 12 -24 0 -19 -54 -1 -58 19 -4 20 28 23 46 5z m-3158 -13 c6
-8 10 -19 8 -24 -4 -12 -68 14 -68 29 0 15 46 12 60 -5z m910 -26 c0 -11 -3
-11 -24 -3 -23 9 -20 23 4 17 11 -3 20 -9 20 -14z m10620 11 c0 -5 -11 -10
-25 -10 -14 0 -25 5 -25 10 0 6 11 10 25 10 14 0 25 -4 25 -10z m-9896 -6 c24
-9 20 -33 -4 -27 -27 7 -48 33 -27 33 8 0 22 -3 31 -6z m-747 -120 c-3 -3 -12
-4 -19 -1 -8 3 -5 6 6 6 11 1 17 -2 13 -5z m5501 -56 c3 -15 -1 -16 -19 -9
-32 11 -38 34 -8 29 13 -1 25 -11 27 -20z m-6439 -79 c26 -9 44 -29 26 -29
-10 0 -65 30 -65 35 0 7 3 6 39 -6z m1528 -122 c4 -7 0 -8 -11 -4 -10 4 -22 7
-27 7 -5 0 -9 4 -9 9 0 12 38 2 47 -12z m-1131 -128 c7 -12 4 -11 -35 2 -17 6
-31 15 -31 19 0 11 58 -8 66 -21z m1514 5 c0 -2 -9 -4 -21 -4 -11 0 -18 4 -14
10 5 8 35 3 35 -6z m1174 -13 c4 -5 -3 -7 -14 -4 -23 6 -26 13 -6 13 8 0 17
-4 20 -9z m-319 -61 c7 -12 -2 -12 -30 0 -19 8 -19 9 2 9 12 1 25 -3 28 -9z
m6405 -20 c0 -5 -9 -10 -20 -10 -11 0 -20 5 -20 10 0 6 9 10 20 10 11 0 20 -4
20 -10z m980 -76 c0 -11 -5 -14 -16 -10 -9 3 -20 6 -25 6 -5 0 -9 5 -9 10 0 6
11 10 25 10 16 0 25 -6 25 -16z m-8210 -34 c18 -12 2 -12 -25 0 -13 6 -15 9
-5 9 8 0 22 -4 30 -9z m-760 -40 c13 -8 13 -10 -2 -10 -9 0 -20 5 -23 10 -8
13 5 13 25 0z m-1355 -10 c8 -13 -5 -13 -25 0 -13 8 -13 10 2 10 9 0 20 -4 23
-10z m4 -46 c2 -2 2 -7 -2 -10 -9 -10 -57 5 -57 17 0 10 48 4 59 -7z m1966
-34 c3 -5 -3 -10 -14 -10 -11 0 -23 5 -26 10 -3 6 3 10 14 10 11 0 23 -4 26
-10z m572 -36 c-3 -3 -12 -4 -19 -1 -8 3 -5 6 6 6 11 1 17 -2 13 -5z m4661
-11 c2 -8 -6 -13 -22 -13 -17 0 -26 5 -26 16 0 19 41 16 48 -3z m3720 5 c-5
-15 -58 -24 -58 -10 0 15 12 22 38 22 14 0 22 -5 20 -12z m-3958 -8 c0 -5 -4
-10 -10 -10 -5 0 -10 5 -10 10 0 6 5 10 10 10 6 0 10 -4 10 -10z m-4565 -10
c7 -12 -2 -12 -30 0 -19 8 -19 9 2 9 12 1 25 -3 28 -9z m-510 -40 c7 -12 -2
-12 -30 0 -19 8 -19 9 2 9 12 1 25 -3 28 -9z m-1445 -42 c0 -11 -14 -10 -47 3
-19 7 -24 12 -14 18 13 9 61 -8 61 -21z m9888 -81 c3 -12 -4 -17 -22 -17 -27
0 -37 24 -13 33 19 8 32 2 35 -16z m-9341 -113 c-3 -3 -12 -4 -19 -1 -8 3 -5
6 6 6 11 1 17 -2 13 -5z m10126 -11 c-7 -2 -19 -2 -25 0 -7 3 -2 5 12 5 14 0
19 -2 13 -5z m-68 -43 c3 -5 -1 -10 -9 -10 -8 0 -18 5 -21 10 -3 6 1 10 9 10
8 0 18 -4 21 -10z m-970 -160 c3 -5 -3 -10 -15 -10 -12 0 -18 5 -15 10 3 6 10
10 15 10 5 0 12 -4 15 -10z m-9649 -16 c18 -14 18 -15 -6 -8 -31 8 -50 24 -29
24 8 0 24 -7 35 -16z m-342 -93 c4 -5 -3 -7 -14 -4 -23 6 -26 13 -6 13 8 0 17
-4 20 -9z m2086 -101 c13 -8 13 -10 -2 -10 -9 0 -20 5 -23 10 -8 13 5 13 25 0z
m338 -6 c26 -18 21 -34 -11 -34 -28 1 -55 21 -50 38 6 17 34 15 61 -4z m-2387
-111 c13 -15 11 -16 -21 -9 -47 9 -63 26 -23 26 17 0 37 -8 44 -17z m2304 -43
c7 -12 -12 -12 -40 0 -18 8 -17 9 7 9 15 1 30 -3 33 -9z m112 -236 c-3 -3 -12
-4 -19 -1 -8 3 -5 6 6 6 11 1 17 -2 13 -5z m7893 -34 c0 -5 -9 -10 -19 -10
-11 0 -23 5 -26 10 -4 6 5 10 19 10 14 0 26 -4 26 -10z m575 -139 c3 -5 2 -12
-3 -15 -13 -8 -53 5 -46 15 7 12 41 12 49 0z m-725 -31 c0 -5 -13 -10 -30 -10
-16 0 -30 5 -30 10 0 6 14 10 30 10 17 0 30 -4 30 -10z m-9340 -39 c0 -5 -9
-7 -20 -4 -11 3 -20 7 -20 9 0 2 9 4 20 4 11 0 20 -4 20 -9z m9064 3 c27 -10
18 -24 -15 -24 -27 0 -30 2 -19 15 14 17 13 17 34 9z m-129 -24 c4 -6 -5 -10
-19 -10 -14 0 -26 5 -26 10 0 6 9 10 19 10 11 0 23 -4 26 -10z m-9165 -146 c0
-2 -7 -4 -15 -4 -8 0 -15 4 -15 10 0 5 7 7 15 4 8 -4 15 -8 15 -10z m890 -14
c13 -9 13 -10 0 -9 -8 0 -24 4 -35 9 l-20 9 20 0 c11 0 27 -4 35 -9z m10053
-37 c-7 -2 -21 -2 -30 0 -10 3 -4 5 12 5 17 0 24 -2 18 -5z m-11555 -55 c7 -7
12 -25 12 -40 0 -23 -4 -28 -24 -28 -40 0 -76 18 -76 38 0 25 20 42 50 42 14
0 31 -5 38 -12z m-94 -117 c3 -4 -6 -6 -19 -3 -14 2 -25 6 -25 8 0 8 39 4 44
-5z m12 -45 c10 -8 16 -17 13 -20 -9 -9 -59 11 -59 24 0 14 23 12 46 -4z
m10401 -712 c-3 -3 -12 -4 -19 -1 -8 3 -5 6 6 6 11 1 17 -2 13 -5z m1268 -34
c3 -5 -3 -10 -15 -10 -12 0 -18 5 -15 10 3 6 10 10 15 10 5 0 12 -4 15 -10z
m-10545 -10 c13 -9 13 -10 0 -10 -8 0 -22 5 -30 10 -13 9 -13 10 0 10 8 0 22
-5 30 -10z m10015 -40 c-3 -5 -15 -10 -25 -10 -10 0 -22 5 -25 10 -4 6 7 10
25 10 18 0 29 -4 25 -10z m-10866 -56 c2 -2 2 -6 -1 -9 -9 -9 -58 6 -58 17 0
9 49 3 59 -8z m346 -224 c7 -12 -12 -12 -40 0 -18 8 -17 9 7 9 15 1 30 -3 33
-9z m175 -160 c12 -8 12 -10 -5 -10 -11 0 -27 5 -35 10 -12 8 -12 10 5 10 11
0 27 -5 35 -10z m-287 -77 c-7 -2 -19 -2 -25 0 -7 3 -2 5 12 5 14 0 19 -2 13
-5z m10447 -453 c0 -5 -9 -10 -20 -10 -11 0 -20 5 -20 10 0 6 9 10 20 10 11 0
20 -4 20 -10z m-10926 -516 c9 -3 16 -10 16 -14 0 -10 -49 0 -56 11 -6 10 17
12 40 3z m11401 -304 c4 -6 -5 -10 -19 -10 -14 0 -26 5 -26 10 0 6 9 10 19 10
11 0 23 -4 26 -10z m-315 -20 c0 -5 -11 -10 -25 -10 -14 0 -25 5 -25 10 0 6
11 10 25 10 14 0 25 -4 25 -10z m-10135 -104 c23 -17 13 -46 -15 -46 -27 0
-54 26 -46 45 7 19 36 19 61 1z m10559 -47 c-7 -11 -54 -12 -54 -1 0 15 10 19
35 14 14 -2 22 -8 19 -13z m-11339 -209 c18 -8 17 -9 -7 -9 -16 -1 -28 4 -28
9 0 12 8 12 35 0z m9673 -88 c3 -9 -3 -13 -19 -10 -12 1 -24 9 -27 16 -3 9 3
13 19 10 12 -1 24 -9 27 -16z m1350 -89 c2 -8 -6 -13 -22 -13 -25 0 -33 10
-19 24 10 10 36 3 41 -11z m-10069 -9 c2 -2 2 -6 -1 -9 -8 -9 -58 6 -58 16 0
8 48 2 59 -7z m10441 -88 c0 -2 -7 -6 -15 -10 -8 -3 -15 -1 -15 4 0 6 7 10 15
10 8 0 15 -2 15 -4z m-40 -60 c0 -3 -4 -8 -10 -11 -5 -3 -10 -1 -10 4 0 6 5
11 10 11 6 0 10 -2 10 -4z m-300 -16 c12 -8 9 -10 -12 -10 -16 0 -28 5 -28 10
0 13 20 13 40 0z m50 -16 c0 -2 -7 -4 -15 -4 -8 0 -15 4 -15 10 0 5 7 7 15 4
8 -4 15 -8 15 -10z m194 7 c8 -13 -21 -34 -39 -27 -9 3 -15 0 -15 -9 0 -16
-12 -20 -23 -8 -9 9 35 51 55 52 9 1 19 -3 22 -8z m-1107 -48 c-3 -10 -5 -4
-5 12 0 17 2 24 5 18 2 -7 2 -21 0 -30z m187 -14 c-3 -5 -11 -9 -19 -9 -11 0
-11 6 -2 30 11 28 12 29 19 9 5 -11 6 -25 2 -30z m-8671 4 c-7 -2 -19 -2 -25
0 -7 3 -2 5 12 5 14 0 19 -2 13 -5z m8752 -42 c-6 -21 -25 -29 -25 -11 0 5 -7
7 -15 4 -20 -8 -65 4 -65 16 0 6 9 10 19 10 11 0 23 5 26 11 4 6 13 8 21 5 8
-3 14 0 14 6 0 8 6 6 16 -4 10 -10 14 -23 9 -37z m681 33 c-3 -9 -6 -24 -6
-35 0 -10 -4 -19 -9 -19 -16 0 -21 30 -8 50 14 24 32 27 23 4z m74 -19 c0 -19
-4 -35 -9 -35 -5 0 -11 16 -13 35 -3 24 0 35 9 35 8 0 13 -13 13 -35z m242 28
c-12 -2 -20 -8 -17 -13 3 -4 1 -19 -4 -32 -9 -21 -10 -19 -10 15 -1 34 1 37
27 36 23 -2 24 -2 4 -6z m-10727 -13 c7 -12 -2 -12 -30 0 -19 8 -19 9 2 9 12
1 25 -3 28 -9z m8805 0 c0 -5 -4 -10 -9 -10 -6 0 -13 5 -16 10 -3 6 1 10 9 10
9 0 16 -4 16 -10z m1637 -37 c-3 -10 -5 -4 -5 12 0 17 2 24 5 18 2 -7 2 -21 0
-30z m360 7 c0 -23 -4 -29 -14 -25 -8 3 -19 5 -24 5 -5 0 -8 10 -8 23 1 16 2
18 6 5 6 -24 23 -23 23 2 0 11 4 20 8 20 5 0 9 -14 9 -30z m-1596 -42 c23 -28
24 -38 3 -38 -9 0 -18 9 -21 20 -3 11 -9 20 -14 20 -5 0 -9 5 -9 10 0 17 21
11 41 -12z m234 4 c-3 -3 -11 0 -18 7 -9 10 -8 11 6 5 10 -3 15 -9 12 -12z
m32 -10 c0 -11 -10 -17 -26 -18 -26 -2 -26 -2 -3 9 12 5 22 14 22 19 0 4 2 8
4 8 3 0 4 -8 3 -18z m925 -14 c-15 -15 -26 -4 -18 18 5 13 9 15 18 6 9 -9 9
-15 0 -24z m-1242 12 c0 -5 -7 -10 -15 -10 -8 0 -15 5 -15 10 0 6 7 10 15 10
8 0 15 -4 15 -10z m105 0 c3 -5 -1 -10 -9 -10 -9 0 -16 5 -16 10 0 6 4 10 9
10 6 0 13 -4 16 -10z m61 -27 c-10 -10 -19 5 -10 18 6 11 8 11 12 0 2 -7 1
-15 -2 -18z m614 17 c0 -5 -9 -14 -20 -20 -14 -7 -20 -7 -20 0 0 5 7 10 15 10
8 0 15 5 15 10 0 6 2 10 5 10 3 0 5 -4 5 -10z m780 6 c0 -2 -7 -6 -15 -10 -8
-3 -15 -1 -15 4 0 6 7 10 15 10 8 0 15 -2 15 -4z m-1137 -23 c-7 -2 -21 -2
-30 0 -10 3 -4 5 12 5 17 0 24 -2 18 -5z m-611 -35 c-15 -15 -26 -4 -18 18 5
13 9 15 18 6 9 -9 9 -15 0 -24z m53 21 c4 -6 5 -12 2 -15 -7 -7 -37 7 -37 17
0 13 27 11 35 -2z m45 -9 c0 -5 -7 -10 -16 -10 -8 0 -12 5 -9 10 3 6 10 10 16
10 5 0 9 -4 9 -10z m-215 -10 c3 -5 1 -10 -4 -10 -6 0 -11 5 -11 10 0 6 2 10
4 10 3 0 8 -4 11 -10z m170 -20 c3 -5 -1 -10 -10 -10 -9 0 -13 5 -10 10 3 6 8
10 10 10 2 0 7 -4 10 -10z m-705 -10 c12 -8 12 -10 -3 -16 -9 -3 -25 -3 -34 0
-15 6 -15 8 -3 16 8 6 17 10 20 10 3 0 12 -4 20 -10z m610 -11 c0 -5 -7 -9
-15 -9 -15 0 -20 12 -9 23 8 8 24 -1 24 -14z m-260 -10 c0 -6 -4 -7 -10 -4 -5
3 -10 11 -10 16 0 6 5 7 10 4 6 -3 10 -11 10 -16z m-7515 1 l20 -9 -20 0 c-11
0 -27 4 -35 9 -13 9 -13 10 0 9 8 0 24 -4 35 -9z m7415 -32 c0 -5 -4 -8 -10
-8 -5 0 -10 10 -10 23 0 18 2 19 10 7 5 -8 10 -18 10 -22z m80 7 c0 -8 -4 -15
-9 -15 -13 0 -22 16 -14 24 11 11 23 6 23 -9z m-613 -1 c-3 -3 -12 -4 -19 -1
-8 3 -5 6 6 6 11 1 17 -2 13 -5z m216 -41 c-7 -2 -19 -2 -25 0 -7 3 -2 5 12 5
14 0 19 -2 13 -5z m405 -39 c8 -13 13 -14 31 -4 33 17 36 6 4 -15 -18 -12 -28
-14 -31 -7 -2 7 -12 12 -23 12 -19 0 -25 11 -12 23 11 11 21 8 31 -9z m-519
-39 c0 -5 -4 -3 -9 5 -5 8 -9 22 -9 30 0 16 17 -16 18 -35z m411 19 c0 -14 -7
-15 -37 -10 -21 3 -48 6 -60 6 -13 0 -23 5 -23 10 0 6 27 10 60 10 49 0 60 -3
60 -16z m-295 -5 c4 -6 5 -12 4 -14 -7 -7 -59 8 -59 16 0 13 47 11 55 -2z m45
1 c0 -5 -4 -10 -10 -10 -5 0 -10 5 -10 10 0 6 5 10 10 10 6 0 10 -4 10 -10z
m-986 -26 c24 -9 19 -24 -8 -24 -28 0 -43 16 -24 23 7 3 14 6 15 6 1 1 8 -2
17 -5z m931 -10 c17 4 25 2 25 -7 0 -7 -13 -14 -30 -15 -21 -2 -32 4 -41 20
-11 21 -11 22 4 9 10 -8 27 -11 42 -7z m65 12 c0 -3 -4 -8 -10 -11 -5 -3 -10
-1 -10 4 0 6 5 11 10 11 6 0 10 -2 10 -4z m184 -28 c-1 -45 -24 -49 -24 -4 0
22 5 36 13 36 7 0 12 -13 11 -32z m-114 12 c0 -5 -5 -10 -11 -10 -5 0 -7 5 -4
10 3 6 8 10 11 10 2 0 4 -4 4 -10z m-335 -19 c3 -5 1 -12 -5 -16 -5 -3 -10 1
-10 9 0 18 6 21 15 7z m208 -26 c-3 -9 -8 -14 -10 -11 -3 3 -2 9 2 15 9 16 15
13 8 -4z m142 -3 c-3 -3 -11 0 -18 7 -9 10 -8 11 6 5 10 -3 15 -9 12 -12z
m-505 -2 c0 -5 -5 -10 -11 -10 -5 0 -7 5 -4 10 3 6 8 10 11 10 2 0 4 -4 4 -10z
m107 4 c-3 -3 -12 -4 -19 -1 -8 3 -5 6 6 6 11 1 17 -2 13 -5z m350 0 c-3 -3
-12 -4 -19 -1 -8 3 -5 6 6 6 11 1 17 -2 13 -5z m-377 -29 c0 -8 -2 -15 -4 -15
-2 0 -6 7 -10 15 -3 8 -1 15 4 15 6 0 10 -7 10 -15z m395 5 c8 -13 -15 -13
-35 0 -12 8 -11 10 7 10 12 0 25 -4 28 -10z m95 0 c0 -5 -11 -10 -25 -10 -14
0 -25 5 -25 10 0 6 11 10 25 10 14 0 25 -4 25 -10z m-995 -10 c3 -5 1 -10 -4
-10 -6 0 -11 5 -11 10 0 6 2 10 4 10 3 0 8 -4 11 -10z m305 -16 c0 -2 -7 -4
-15 -4 -8 0 -15 4 -15 10 0 5 7 7 15 4 8 -4 15 -8 15 -10z m170 -10 c0 -2 -7
-4 -15 -4 -8 0 -15 4 -15 10 0 5 7 7 15 4 8 -4 15 -8 15 -10z m377 10 c-3 -3
-12 -4 -19 -1 -8 3 -5 6 6 6 11 1 17 -2 13 -5z m-5837 -14 c0 -5 -11 -10 -24
-10 -14 0 -28 5 -31 10 -4 6 7 10 24 10 17 0 31 -4 31 -10z m5560 0 c0 -5 -4
-10 -10 -10 -5 0 -10 5 -10 10 0 6 5 10 10 10 6 0 10 -4 10 -10z m50 0 c0 -5
-4 -10 -10 -10 -5 0 -10 5 -10 10 0 6 5 10 10 10 6 0 10 -4 10 -10z m57 -1 c8
-8 13 -8 17 0 4 6 15 11 24 11 14 0 14 -2 3 -9 -17 -11 -6 -45 12 -38 19 7 41
-8 32 -23 -10 -17 -50 -4 -79 25 -14 14 -30 25 -36 25 -5 0 -10 5 -10 10 0 13
23 13 37 -1z m168 -9 c7 -11 6 -11 -42 -15 -35 -3 -46 10 -15 18 31 8 51 7 57
-3z m-835 -15 c0 -8 7 -15 15 -15 8 0 15 -5 15 -11 0 -6 -10 -9 -22 -7 -23 3
-40 48 -19 48 6 0 11 -7 11 -15z m364 -3 c2 -4 1 -23 -4 -42 l-8 -35 -1 31
c-1 22 -8 34 -23 42 -23 11 -23 11 4 11 15 1 29 -2 32 -7z m-274 -33 c0 -5 -4
-9 -10 -9 -5 0 -10 7 -10 16 0 8 5 12 10 9 6 -3 10 -10 10 -16z m-46 -13 c-3
-9 -10 -13 -15 -10 -5 3 -3 11 4 19 15 16 19 13 11 -9z m-207 -12 c14 6 15 4
7 -4 -14 -14 -54 -4 -54 12 0 6 6 6 15 -2 8 -7 23 -9 32 -6z m133 7 c0 -5 12
-12 28 -15 15 -4 35 -9 45 -12 11 -4 17 0 17 10 0 21 16 21 24 0 9 -25 0 -32
-53 -39 -38 -5 -48 -10 -44 -21 4 -10 12 -12 27 -8 18 6 19 5 7 -10 -7 -9 -19
-16 -26 -16 -8 0 -16 -6 -19 -12 -3 -7 -3 -3 -1 9 3 12 1 24 -5 28 -6 4 -10
-6 -10 -24 0 -41 -20 -40 -21 2 l-2 32 -6 -35 -7 -35 -5 38 c-5 35 -4 37 24
37 l30 0 -26 21 c-23 17 -25 23 -14 40 12 19 37 26 37 10z m-205 -11 c3 -5 1
-10 -4 -10 -6 0 -11 5 -11 10 0 6 2 10 4 10 3 0 8 -4 11 -10z m645 6 c0 -2 -7
-6 -15 -10 -8 -3 -15 -1 -15 4 0 6 7 10 15 10 8 0 15 -2 15 -4z m80 -6 c0 -5
-14 -10 -31 -10 -17 0 -28 4 -24 10 3 6 17 10 31 10 13 0 24 -4 24 -10z m-270
-10 c0 -5 -4 -10 -10 -10 -5 0 -10 5 -10 10 0 6 5 10 10 10 6 0 10 -4 10 -10z
m180 -35 c0 -8 -4 -15 -10 -15 -5 0 -10 7 -10 15 0 8 5 15 10 15 6 0 10 -7 10
-15z m-1620 -5 c12 -8 11 -10 -7 -10 -13 0 -23 5 -23 10 0 13 11 13 30 0z
m1025 -10 c3 -5 1 -10 -4 -10 -6 0 -11 5 -11 10 0 6 2 10 4 10 3 0 8 -4 11
-10z m-163 -45 c0 -5 -5 -11 -11 -13 -6 -2 -11 4 -11 13 0 9 5 15 11 13 6 -2
11 -8 11 -13z m148 -17 c0 -5 -4 -8 -10 -8 -5 0 -10 10 -10 23 0 18 2 19 10 7
5 -8 10 -18 10 -22z m-47 1 c18 -20 18 -21 -5 -14 -29 9 -31 11 -23 24 8 14 8
14 28 -10z m-223 -3 c0 -3 -4 -8 -10 -11 -5 -3 -10 -1 -10 4 0 6 5 11 10 11 6
0 10 -2 10 -4z m-4517 -23 c-7 -2 -19 -2 -25 0 -7 3 -2 5 12 5 14 0 19 -2 13
-5z m4449 -25 c-9 -9 -12 -7 -12 12 0 19 3 21 12 12 9 -9 9 -15 0 -24z m78 12
c0 -5 -4 -10 -10 -10 -5 0 -10 5 -10 10 0 6 5 10 10 10 6 0 10 -4 10 -10z
m200 0 c0 -5 -11 -10 -25 -10 -14 0 -25 5 -25 10 0 6 11 10 25 10 14 0 25 -4
25 -10z m-7645 -20 c17 -7 15 -9 -12 -9 -18 -1 -33 4 -33 9 0 12 17 12 45 0z
m3355 -9 c0 -5 -9 -7 -20 -4 -11 3 -20 7 -20 9 0 2 9 4 20 4 11 0 20 -4 20 -9z
m4105 -11 c3 -5 15 -10 26 -10 10 0 19 -5 19 -10 0 -7 -14 -8 -37 -4 -45 8
-47 9 -38 23 8 14 22 14 30 1z m-2325 -20 c0 -12 -8 -12 -35 0 -18 8 -17 9 8
9 15 1 27 -3 27 -9z m-1907 -77 c-7 -2 -19 -2 -25 0 -7 3 -2 5 12 5 14 0 19
-2 13 -5z m-1053 -13 c0 -12 -8 -12 -35 0 -18 8 -17 9 8 9 15 1 27 -3 27 -9z
m4740 -6 c0 -8 -4 -12 -10 -9 -5 3 -10 10 -10 16 0 5 5 9 10 9 6 0 10 -7 10
-16z m-2760 -34 c0 -5 -11 -10 -25 -10 -14 0 -25 5 -25 10 0 6 11 10 25 10 14
0 25 -4 25 -10z m2770 -5 c6 -8 9 -19 5 -25 -9 -15 -35 -12 -35 5 0 8 -5 15
-11 15 -5 0 -7 5 -4 10 9 14 31 12 45 -5z m-3467 -62 c-7 -2 -21 -2 -30 0 -10
3 -4 5 12 5 17 0 24 -2 18 -5z m332 -23 c4 -6 -5 -10 -19 -10 -14 0 -26 5 -26
10 0 6 9 10 19 10 11 0 23 -4 26 -10z m2785 -64 c0 -3 -4 -8 -10 -11 -5 -3
-10 -1 -10 4 0 6 5 11 10 11 6 0 10 -2 10 -4z m-2145 -26 c3 -5 -3 -10 -14
-10 -11 0 -23 5 -26 10 -3 6 3 10 14 10 11 0 23 -4 26 -10z m-3011 -26 c27
-10 18 -25 -11 -18 -37 9 -53 24 -26 24 12 0 28 -3 37 -6z m-1037 -190 c14
-23 14 -26 -2 -44 -23 -26 -83 -27 -101 -2 -18 23 -17 59 1 69 28 16 85 2 102
-23z m5783 22 c0 -3 -4 -8 -10 -11 -5 -3 -10 -1 -10 4 0 6 5 11 10 11 6 0 10
-2 10 -4z m-6 -51 c-4 -8 -8 -15 -10 -15 -2 0 -4 7 -4 15 0 8 4 15 10 15 5 0
7 -7 4 -15z m-3964 -25 c12 -8 9 -10 -12 -10 -15 0 -30 5 -33 10 -8 13 25 13
45 0z m3840 -6 c0 -8 -4 -12 -10 -9 -5 3 -10 10 -10 16 0 5 5 9 10 9 6 0 10
-7 10 -16z m-3380 -4 c0 -6 -11 -8 -27 -4 -40 10 -41 14 -5 14 18 0 32 -5 32
-10z m3150 -8 c0 -14 -11 -21 -26 -15 -21 8 -17 23 6 23 11 0 20 -4 20 -8z
m-316 -8 c26 -10 18 -24 -13 -24 -30 0 -46 12 -34 24 8 8 27 8 47 0z m485 -80
c2 -2 2 -7 -2 -10 -9 -10 -57 5 -57 17 0 10 48 4 59 -7z m-5182 0 c-3 -3 -12
-4 -19 -1 -8 3 -5 6 6 6 11 1 17 -2 13 -5z m1753 -3 c0 -4 -11 -6 -25 -3 -14
2 -25 6 -25 8 0 2 11 4 25 4 14 0 25 -4 25 -9z m3358 -18 c-10 -2 -26 -2 -35
0 -10 3 -2 5 17 5 19 0 27 -2 18 -5z m-1780 -45 c-3 -7 -10 -13 -16 -12 -7 1
-21 2 -32 3 -35 2 -21 21 16 21 24 0 34 -4 32 -12z m1682 -4 c0 -8 -4 -12 -10
-9 -5 3 -10 10 -10 16 0 5 5 9 10 9 6 0 10 -7 10 -16z m-130 -39 c0 -8 -4 -15
-9 -15 -5 0 -12 -13 -16 -30 -7 -31 -25 -42 -25 -15 0 22 29 75 40 75 6 0 10
-7 10 -15z m-280 -45 c0 -5 -9 -10 -19 -10 -11 0 -23 5 -26 10 -4 6 5 10 19
10 14 0 26 -4 26 -10z m10 -92 c0 -12 -48 -10 -55 2 -3 5 7 8 25 7 16 -1 30
-5 30 -9z m160 -13 c0 -20 -28 -31 -42 -17 -10 10 8 23 40 31 1 1 2 -6 2 -14z
m-1495 -15 c3 -5 -1 -10 -9 -10 -8 0 -18 5 -21 10 -3 6 1 10 9 10 8 0 18 -4
21 -10z m-645 -20 c11 -7 7 -10 -17 -10 -18 0 -33 5 -33 10 0 13 30 13 50 0z
m820 -44 c0 -10 -7 -12 -22 -8 -21 5 -21 6 -2 13 10 4 20 8 22 8 1 1 2 -5 2
-13z m-1305 -76 c17 -7 15 -9 -12 -9 -18 -1 -33 4 -33 9 0 12 17 12 45 0z
m2175 0 c0 -5 -8 -10 -17 -10 -15 0 -16 2 -3 10 19 12 20 12 20 0z m126 -27
c-10 -10 -19 5 -10 18 6 11 8 11 12 0 2 -7 1 -15 -2 -18z m-26 -3 c0 -5 -15
-9 -32 -9 l-33 1 30 8 c17 4 31 8 33 9 1 0 2 -3 2 -9z m-185 -40 c3 -5 12 -7
20 -3 8 3 15 0 15 -6 0 -6 -6 -11 -12 -11 -16 1 -56 30 -41 30 7 0 14 -4 18
-10z m93 -31 c-2 -6 -8 -10 -13 -10 -5 0 -11 4 -13 10 -2 6 4 11 13 11 9 0 15
-5 13 -11z m-123 -8 c3 -5 1 -12 -5 -16 -5 -3 -10 1 -10 9 0 18 6 21 15 7z
m45 -7 c0 -8 -5 -12 -10 -9 -6 4 -8 11 -5 16 9 14 15 11 15 -7z m-2290 -14 c0
-12 -8 -12 -35 0 -18 8 -17 9 8 9 15 1 27 -3 27 -9z m2015 -70 c13 -6 15 -9 5
-9 -8 0 -22 4 -30 9 -18 12 -2 12 25 0z m132 4 c-3 -3 -12 -4 -19 -1 -8 3 -5
6 6 6 11 1 17 -2 13 -5z m38 -4 c3 -5 -1 -10 -9 -10 -9 0 -16 5 -16 10 0 6 4
10 9 10 6 0 13 -4 16 -10z m85 0 c0 -5 -7 -10 -16 -10 -8 0 -12 5 -9 10 3 6
10 10 16 10 5 0 9 -4 9 -10z"/>
<path d="M10810 2010 c0 -5 7 -10 15 -10 8 0 15 5 15 10 0 6 -7 10 -15 10 -8
0 -15 -4 -15 -10z"/>
<path d="M11075 1990 c3 -5 8 -10 11 -10 2 0 4 5 4 10 0 6 -5 10 -11 10 -5 0
-7 -4 -4 -10z"/>
<path d="M11100 1986 c0 -14 29 -31 38 -22 5 5 -23 36 -32 36 -3 0 -6 -6 -6
-14z"/>
<path d="M11185 1980 c-3 -5 -2 -18 4 -27 7 -14 9 -12 8 10 -2 30 -3 31 -12
17z"/>
<path d="M10140 1970 c0 -5 11 -10 25 -10 14 0 25 5 25 10 0 6 -11 10 -25 10
-14 0 -25 -4 -25 -10z"/>
<path d="M11570 1950 c-12 -23 -3 -25 23 -6 21 16 22 26 2 26 -8 0 -19 -9 -25
-20z"/>
<path d="M11645 1960 c3 -5 10 -10 16 -10 5 0 9 5 9 10 0 6 -7 10 -16 10 -8 0
-12 -4 -9 -10z"/>
<path d="M10705 1950 c-3 -5 -1 -10 4 -10 6 0 11 5 11 10 0 6 -2 10 -4 10 -3
0 -8 -4 -11 -10z"/>
<path d="M10900 1924 c0 -8 5 -12 10 -9 6 3 10 10 10 16 0 5 -4 9 -10 9 -5 0
-10 -7 -10 -16z"/>
<path d="M10470 1910 c0 -5 5 -10 10 -10 6 0 10 5 10 10 0 6 -4 10 -10 10 -5
0 -10 -4 -10 -10z"/>
<path d="M10960 1905 c0 -8 5 -15 10 -15 6 0 10 7 10 15 0 8 -4 15 -10 15 -5
0 -10 -7 -10 -15z"/>
<path d="M10385 1901 c-6 -11 9 -23 19 -14 9 9 7 23 -3 23 -6 0 -12 -4 -16 -9z"/>
<path d="M10512 1894 c10 -10 20 -16 22 -13 3 3 -5 11 -17 18 -21 13 -21 12
-5 -5z"/>
<path d="M10840 1899 c0 -5 5 -7 10 -4 6 3 10 8 10 11 0 2 -4 4 -10 4 -5 0
-10 -5 -10 -11z"/>
<path d="M11783 1903 c-15 -3 -23 -12 -23 -25 0 -18 2 -19 17 -7 30 23 45 39
36 38 -4 -1 -18 -4 -30 -6z"/>
<path d="M11070 1890 c0 -5 5 -10 11 -10 5 0 7 5 4 10 -3 6 -8 10 -11 10 -2 0
-4 -4 -4 -10z"/>
<path d="M10180 1879 c0 -6 -9 -8 -20 -4 -11 4 -20 2 -20 -4 0 -6 14 -11 30
-11 20 0 30 5 30 15 0 8 -4 15 -10 15 -5 0 -10 -5 -10 -11z"/>
<path d="M11810 1869 c0 -5 5 -7 10 -4 6 3 10 8 10 11 0 2 -4 4 -10 4 -5 0
-10 -5 -10 -11z"/>
<path d="M9832 1845 c-14 -14 -20 -29 -16 -40 4 -10 1 -21 -7 -26 -10 -6 -6
-9 14 -9 21 0 27 5 28 23 1 12 3 34 5 50 1 15 2 27 1 26 -1 -1 -12 -11 -25
-24z"/>
<path d="M9976 1815 c-3 -9 0 -15 8 -15 7 0 19 7 26 15 10 12 9 15 -8 15 -11
0 -22 -7 -26 -15z"/>
<path d="M9925 1800 c3 -5 11 -10 16 -10 6 0 7 5 4 10 -3 6 -11 10 -16 10 -6
0 -7 -4 -4 -10z"/>
<path d="M9926 1771 c-18 -7 -18 -8 4 -14 27 -7 39 -1 24 12 -5 5 -18 5 -28 2z"/>
<path d="M9892 1740 c0 -19 2 -27 5 -17 2 9 2 25 0 35 -3 9 -5 1 -5 -18z"/>
<path d="M9620 1680 c0 -19 3 -21 12 -12 9 9 9 15 0 24 -9 9 -12 7 -12 -12z"/>
<path d="M9535 1640 c-3 -5 -1 -10 4 -10 6 0 11 5 11 10 0 6 -2 10 -4 10 -3 0
-8 -4 -11 -10z"/>
<path d="M9105 1550 c-3 -5 -1 -10 4 -10 6 0 11 5 11 10 0 6 -2 10 -4 10 -3 0
-8 -4 -11 -10z"/>
<path d="M9266 1535 c4 -8 8 -15 10 -15 2 0 4 7 4 15 0 8 -4 15 -10 15 -5 0
-7 -7 -4 -15z"/>
<path d="M8927 1485 c-10 -7 -15 -15 -10 -18 5 -3 16 1 26 8 10 7 15 15 10 18
-5 3 -16 -1 -26 -8z"/>
<path d="M9210 1490 c0 -5 7 -10 15 -10 8 0 15 5 15 10 0 6 -7 10 -15 10 -8 0
-15 -4 -15 -10z"/>
<path d="M8697 1473 c-13 -13 -7 -32 8 -27 8 4 15 12 15 20 0 15 -12 19 -23 7z"/>
<path d="M8822 1460 c0 -14 2 -19 5 -12 2 6 2 18 0 25 -3 6 -5 1 -5 -13z"/>
<path d="M8841 1464 c0 -11 3 -14 6 -6 3 7 2 16 -1 19 -3 4 -6 -2 -5 -13z"/>
<path d="M9067 1431 c-4 -17 -3 -21 5 -13 5 5 8 16 6 23 -3 8 -7 3 -11 -10z"/>
<path d="M8956 1424 c-11 -8 -14 -14 -8 -14 7 0 12 -8 12 -17 0 -14 3 -14 12
-5 10 10 10 15 -1 21 -11 7 -11 9 0 13 8 3 12 8 9 11 -3 3 -14 -1 -24 -9z"/>
<path d="M8550 1408 c0 -4 18 -8 40 -8 22 0 40 3 40 8 0 4 -18 7 -40 7 -22 1
-40 -3 -40 -7z"/>
<path d="M8667 1413 c-12 -11 -8 -23 8 -23 8 0 15 7 15 15 0 16 -12 20 -23 8z"/>
<path d="M7788 1403 c6 -2 12 -9 12 -14 0 -4 -7 -6 -15 -3 -8 4 -15 2 -15 -4
0 -19 27 -20 44 -1 22 26 21 29 -11 28 -16 0 -22 -3 -15 -6z"/>
<path d="M8290 1354 c-13 -33 -13 -33 10 -27 23 6 26 19 8 26 -10 4 -10 6 0 6
14 1 17 21 2 21 -6 0 -15 -12 -20 -26z"/>
<path d="M8531 1373 c-1 -6 -11 -15 -22 -18 -17 -6 -19 -9 -8 -16 17 -10 44
13 36 33 -3 8 -6 9 -6 1z"/>
<path d="M8563 1373 c10 -9 67 -10 67 0 0 4 -16 7 -37 7 -20 0 -33 -3 -30 -7z"/>
<path d="M7838 1313 c6 -2 18 -2 25 0 6 3 1 5 -13 5 -14 0 -19 -2 -12 -5z"/>
<path d="M8355 1300 c3 -5 11 -10 16 -10 6 0 7 5 4 10 -3 6 -11 10 -16 10 -6
0 -7 -4 -4 -10z"/>
<path d="M8025 1260 c4 -6 11 -8 16 -5 14 9 11 15 -7 15 -8 0 -12 -5 -9 -10z"/>
<path d="M7818 1253 c7 -3 16 -2 19 1 4 3 -2 6 -13 5 -11 0 -14 -3 -6 -6z"/>
<path d="M7715 1230 c3 -5 10 -10 16 -10 5 0 9 5 9 10 0 6 -7 10 -16 10 -8 0
-12 -4 -9 -10z"/>
<path d="M7715 1200 c3 -5 12 -7 20 -3 21 7 19 13 -6 13 -11 0 -18 -4 -14 -10z"/>
<path d="M7300 1035 c0 -9 5 -15 11 -13 6 2 11 8 11 13 0 5 -5 11 -11 13 -6 2
-11 -4 -11 -13z"/>
<path d="M7027 893 c-12 -12 -7 -22 8 -17 8 4 15 10 15 15 0 11 -14 12 -23 2z"/>
<path d="M6838 803 c7 -3 16 -2 19 1 4 3 -2 6 -13 5 -11 0 -14 -3 -6 -6z"/>
<path d="M6810 756 c0 -10 28 -13 41 -5 10 6 7 9 -13 9 -16 0 -28 -2 -28 -4z"/>
<path d="M6628 633 c7 -3 16 -2 19 1 4 3 -2 6 -13 5 -11 0 -14 -3 -6 -6z"/>
<path d="M5950 210 c0 -5 5 -10 11 -10 5 0 7 5 4 10 -3 6 -8 10 -11 10 -2 0
-4 -4 -4 -10z"/>
<path d="M5715 10 c3 -5 10 -10 16 -10 5 0 9 5 9 10 0 6 -7 10 -16 10 -8 0
-12 -4 -9 -10z"/>
<path d="M10670 10 c-10 -7 12 -9 70 -9 60 1 76 4 55 9 -44 11 -108 11 -125 0z"/>
</g>
</svg>
