<?xml version="1.0" encoding="UTF-8" standalone="no"?>
<svg
   xmlns:dc="http://purl.org/dc/elements/1.1/"
   xmlns:cc="http://creativecommons.org/ns#"
   xmlns:rdf="http://www.w3.org/1999/02/22-rdf-syntax-ns#"
   xmlns:svg="http://www.w3.org/2000/svg"
   xmlns="http://www.w3.org/2000/svg"
   xmlns:sodipodi="http://sodipodi.sourceforge.net/DTD/sodipodi-0.dtd"
   xmlns:inkscape="http://www.inkscape.org/namespaces/inkscape"
   height="500"
   version="1.1"
   viewBox="0 0 400 500"
   width="400"
   xml:space="preserve"
   id="svg60"
   sodipodi:docname="candle.svg"
   inkscape:version="0.92.5 (2060ec1f9f, 2020-04-08)"><metadata
     id="metadata66"><rdf:RDF><cc:Work
         rdf:about=""><dc:format>image/svg+xml</dc:format><dc:type
           rdf:resource="http://purl.org/dc/dcmitype/StillImage" /><dc:title></dc:title></cc:Work></rdf:RDF></metadata><defs
     id="defs64" /><sodipodi:namedview
     pagecolor="#000000"
     bordercolor="#666666"
     borderopacity="1"
     objecttolerance="10"
     gridtolerance="10"
     guidetolerance="10"
     inkscape:pageopacity="0"
     inkscape:pageshadow="2"
     inkscape:window-width="1920"
     inkscape:window-height="1017"
     id="namedview62"
     showgrid="false"
     inkscape:zoom="1.4112825"
     inkscape:cx="218.42682"
     inkscape:cy="227.79665"
     inkscape:window-x="-8"
     inkscape:window-y="-8"
     inkscape:window-maximized="1"
     inkscape:current-layer="g863" /><g
     id="_x36_35_x2C__candle_x2C__light_x2C__wedding_x2C__love"
     transform="translate(0,-12)"><g
       id="g56"><g
         id="g4612"
         transform="translate(-58.5,3.4995)"><g
           id="g863"
           transform="matrix(1,0,0,0.97011376,0,3.33684)"><g
             id="g914"
             transform="translate(7.345,2.8516156)"><path
               inkscape:connector-curvature="0"
               id="path4"
               style="fill:#ffffff"
               d="m 119.897,145.91644 c 0,-7.36 6.23,-13.59 13.59,-13.59 3.487,0 6.645,1.207 9.09,3.183 -0.705,-6.757 -6.648,-12.243 -14.09,-12.243 -7.359,0 -13.59,6.23 -13.59,13.59 0,4.174 2.007,7.981 5.083,10.498 -0.051,-0.474 -0.083,-0.953 -0.083,-1.438 z" /><path
               inkscape:connector-curvature="0"
               id="path6"
               style="fill:none;stroke:#ffffff;stroke-width:20;stroke-miterlimit:4;stroke-dasharray:none;stroke-opacity:0.90254235"
               d="m 300.998,183.89966 c 0,33.07 -20.32,59.85 -45.3,59.85 -25.07,0 -45.311,-26.78 -45.311,-59.85 0,-36.98 29.5,-55.6 47.721,-89.689976 15.34,32.469976 42.89,57.129976 42.89,89.689976 z" /><path
               inkscape:connector-curvature="0"
               id="path8"
               style="fill:#ffffff;fill-opacity:1"
               d="m 219.162,195.23266 c 0,-36.071 28.063,-54.681 46.353,-87.21099 -2.646,-4.46999 -5.159,-9.054986 -7.406,-13.811986 -18.221,34.089976 -47.721,52.709976 -47.721,89.689976 0,19.723 7.201,37.204 18.331,48.106 -5.986,-10.146 -9.557,-22.901 -9.557,-36.773 z" /><path
               inkscape:connector-curvature="0"
               id="path30"
               style="fill:#ffffff;stroke:#ffffff;stroke-width:10;stroke-miterlimit:4;stroke-dasharray:none;stroke-opacity:1"
               d="m 259.468,44.019684 c -2.762,0 -5,-2.239 -5,-5 v -18.12 c 0,-2.761 2.238,-5 5,-5 2.762,0 5,2.239 5,5 v 18.12 c 0,2.761 -2.239,5 -5,5 z" /><path
               inkscape:connector-curvature="0"
               id="path32"
               style="fill:#ffffff;stroke:#ffffff;stroke-width:10;stroke-miterlimit:4;stroke-dasharray:none;stroke-opacity:1"
               d="m 318.792,98.389684 c -1.494,0 -2.972,-0.666 -3.957,-1.938 -1.69,-2.184 -1.292,-5.324 0.892,-7.015 l 17.7,-13.71 c 2.182,-1.69 5.324,-1.291 7.015,0.891 1.69,2.184 1.292,5.324 -0.892,7.015 l -17.7,13.71 c -0.911,0.705 -1.989,1.047 -3.058,1.047 z" /><path
               inkscape:connector-curvature="0"
               id="path34"
               style="fill:#ffffff;stroke:#ffffff;stroke-width:10;stroke-miterlimit:4;stroke-dasharray:none;stroke-opacity:1"
               d="m 200.154,98.389684 c -1.069,0 -2.146,-0.341 -3.058,-1.046 l -17.71,-13.71 c -2.184,-1.69 -2.583,-4.831 -0.893,-7.014 1.689,-2.184 4.831,-2.583 7.014,-0.893 l 17.71,13.71 c 2.184,1.69 2.584,4.831 0.894,7.014 -0.985,1.273 -2.464,1.939 -3.957,1.939 z" /><path
               inkscape:connector-curvature="0"
               id="path36"
               style="fill:#ffffff;stroke:#ffffff;stroke-width:10;stroke-miterlimit:4;stroke-dasharray:none;stroke-opacity:1"
               d="m 291.925,68.610684 c -0.672,0 -1.354,-0.136 -2.009,-0.424 -2.528,-1.111 -3.677,-4.061 -2.565,-6.589 l 6.2,-14.11 c 1.111,-2.527 4.058,-3.677 6.589,-2.566 2.528,1.111 3.677,4.061 2.565,6.589 l -6.2,14.11 c -0.823,1.874 -2.656,2.99 -4.58,2.99 z" /><path
               inkscape:connector-curvature="0"
               id="path38"
               style="fill:#ffffff;stroke:#ffffff;stroke-width:10;stroke-miterlimit:4;stroke-dasharray:none;stroke-opacity:1"
               d="m 226.72,68.610684 c -1.923,0 -3.757,-1.116 -4.58,-2.99 l -6.199,-14.11 c -1.111,-2.528 0.038,-5.478 2.566,-6.589 2.525,-1.112 5.478,0.038 6.589,2.566 l 6.199,14.11 c 1.111,2.528 -0.038,5.478 -2.566,6.589 -0.655,0.288 -1.337,0.424 -2.009,0.424 z" /><path
               inkscape:connector-curvature="0"
               id="path42"
               style="fill:#ffffff"
               d="m 101.022,263.24644 c 0,-7.36 6.23,-13.59 13.59,-13.59 3.487,0 6.645,1.207 9.09,3.183 -0.705,-6.757 -6.648,-12.243 -14.09,-12.243 -7.359,0 -13.59,6.23 -13.59,13.59 0,4.174 2.007,7.981 5.083,10.498 -0.051,-0.474 -0.083,-0.953 -0.083,-1.438 z" /><path
               inkscape:connector-curvature="0"
               id="path46"
               style="fill:#ffffff"
               d="m 383.608,233.46644 c 0,-7.36 6.23,-13.59 13.59,-13.59 3.487,0 6.645,1.207 9.09,3.183 -0.705,-6.757 -6.648,-12.243 -14.09,-12.243 -7.359,0 -13.59,6.23 -13.59,13.59 0,4.174 2.006,7.981 5.083,10.498 -0.051,-0.474 -0.083,-0.953 -0.083,-1.438 z" /><g
               transform="translate(5.891695,8.2464556)"
               id="g876"><g
                 transform="translate(-6)"
                 id="g889"><path
                   inkscape:connector-curvature="0"
                   id="path10"
                   style="fill:none;stroke:#ffffff;stroke-width:18.61231232;stroke-miterlimit:4;stroke-dasharray:none;stroke-opacity:1"
                   d="m 316.20524,324.49803 h 9.48942 c 2.13489,0 4.18837,-0.37433 6.10616,-1.05309 v 147.0508 c 0,11.74683 -9.10948,21.26396 -20.34483,21.26396 h -113.8912 c -0.12666,0 -0.26234,0 -0.38899,-0.0115 -11.05441,-0.20967 -19.94679,-9.63872 -19.94679,-21.25248 v -117.2864 c 1.90874,0.67877 3.96222,1.0531 6.09711,1.0531 10.48451,0 18.97795,-8.88336 18.97795,-19.84612 v 39.69319 c 0,10.96084 8.50339,19.84611 18.9879,19.84611 h 9.48942 c 10.48451,0 18.98791,-8.88527 18.98791,-19.84611 v -19.84611 c 0,10.96275 8.49435,19.84611 18.97795,19.84611 h 9.48942 c 10.48451,0 18.9879,-8.88336 18.9879,-19.84611 v -49.6105 c 0.002,10.96083 8.49616,19.84515 18.98067,19.84515 z" /><g
                   id="g18"
                   transform="matrix(0.90461645,0,0,0.95735559,16.65235,38.479626)"><g
                     id="g16"><g
                       id="g14"><path
                         inkscape:connector-curvature="0"
                         id="path12"
                         style="fill:#ffffff;fill-opacity:1"
                         d="M 187.008,458.26 V 335.75 c 2.11,0.709 4.38,1.1 6.74,1.1 4.24,0 8.181,-1.252 11.479,-3.389 v -24.342 c 0,11.451 -9.39,20.73 -20.979,20.73 -2.36,0 -4.63,-0.391 -6.74,-1.1 v 122.51 c 0,9.408 5.915,17.441 14.271,20.678 -2.987,-3.769 -4.771,-8.515 -4.771,-13.677 z" /></g></g></g><path
                   inkscape:connector-curvature="0"
                   id="path20"
                   style="fill:none;stroke:#ffffff;stroke-width:18.612257;stroke-miterlimit:4;stroke-dasharray:none;stroke-opacity:1"
                   d="m 344.67351,274.88902 v 29.76322 c 0,8.73205 -5.38247,16.13144 -12.87269,18.79385 -1.91779,0.67876 -3.97127,1.05309 -6.10616,1.05309 h -9.48942 c -10.48451,0 -18.97796,-8.8833 -18.97796,-19.84599 v 49.61018 c 0,10.96268 -8.50339,19.84599 -18.9879,19.84599 h -9.48942 c -10.48451,0 -18.97795,-8.88331 -18.97795,-19.84599 v 19.84599 c 0,10.96076 -8.50339,19.84597 -18.9879,19.84597 h -9.48942 c -10.48452,0 -18.98791,-8.88521 -18.98791,-19.84597 v -39.69293 c 0,10.96267 -8.49434,19.84598 -18.97794,19.84598 -2.1349,0 -4.18837,-0.37433 -6.09712,-1.0531 -7.49023,-2.65186 -12.88173,-10.0618 -12.88173,-18.79384 v -59.52645 h 12.88173 25.07597 47.46613 47.45618 34.57444 z" /><g
                   id="g28"
                   transform="matrix(0.90461645,0,0,0.95735559,16.65235,38.479626)"><g
                     id="g26"><g
                       id="g24"><path
                         inkscape:connector-curvature="0"
                         id="path22"
                         style="fill:#ffffff;fill-opacity:1"
                         d="m 172.328,318.5 v -62.18 h 14.239 27.721 52.471 52.459 38.221 5.17 v -9.38 h -14.23 -38.22 -52.46 -52.471 -27.72 -14.24 v 62.179 c 0,7.922 4.499,14.797 11.105,18.283 -1.303,-2.699 -2.045,-5.713 -2.045,-8.902 z" /></g></g></g><path
                   inkscape:connector-curvature="0"
                   id="path54"
                   style="fill:#ffffff;stroke:#ffffff;stroke-width:9.3061285;stroke-miterlimit:4;stroke-dasharray:none;stroke-opacity:0.90254235"
                   d="M 393.85751,496.54651 H 123.35909 c -2.49855,0 -4.52307,-2.14256 -4.52307,-4.78678 0,-2.6442 2.02452,-4.78677 4.52307,-4.78677 h 270.49842 c 2.49855,0 4.52308,2.14257 4.52308,4.78677 0,2.64422 -2.02543,4.78678 -4.52308,4.78678 z" /></g></g></g></g></g></g></g><g
     id="Layer_1"
     transform="translate(0,-12)" /></svg>