<svg height="100pt" viewBox="0 0 32 32" width="100pt" xmlns="http://www.w3.org/2000/svg">
<path d="M6.58,15.48a9.85,9.85,0,0,0,9.48,7.27,9.81,9.81,0,0,0,8.55-4.94,9.84,9.84,0,1,0-18-2.33ZM8.42,15a8,8,0,0,1-.21-1.16h3.64a17.28,17.28,0,0,0,.23,2.11,12.62,12.62,0,0,0-2.84,1A8,8,0,0,1,8.42,15Zm7.66-9.31a7.74,7.74,0,0,1,1.65,2.67c-.54.05-1.09.08-1.65.08s-1.11,0-1.65-.08A7.74,7.74,0,0,1,16.08,5.67Zm0,4.65a19.36,19.36,0,0,0,2.12-.12,15,15,0,0,1,.2,1.71H13.76A15,15,0,0,1,14,10.2,19.28,19.28,0,0,0,16.08,10.32ZM24,13.82a7.91,7.91,0,0,1-1,3l0,.05a12.54,12.54,0,0,0-2.84-1,17.31,17.31,0,0,0,.23-2.1Zm-5.56,0a15,15,0,0,1-.2,1.79,19.07,19.07,0,0,0-4.24,0,15,15,0,0,1-.2-1.79Zm-2.32,6.41a8.65,8.65,0,0,1-1.65-2.75c.54-.05,1.09-.08,1.65-.08s1.11,0,1.65.08A8.65,8.65,0,0,1,16.08,20.23Zm-5.66-1.77a11.26,11.26,0,0,1,2.1-.68,8.53,8.53,0,0,0,1.37,2.74,7.78,7.78,0,0,1-3.47-2.06Zm7.84,2.06a8.53,8.53,0,0,0,1.37-2.74,11.21,11.21,0,0,1,2.1.68l-.06.07A7.92,7.92,0,0,1,18.26,20.53Zm5.47-9.69a8,8,0,0,1,.2,1.08H20.31a17.27,17.27,0,0,0-.23-2,12.56,12.56,0,0,0,2.84-1A8,8,0,0,1,23.74,10.84Zm-2-3.48a11.23,11.23,0,0,1-2.1.68,8.54,8.54,0,0,0-1.37-2.75,7.81,7.81,0,0,1,3.48,2.07ZM13.9,5.29A8.53,8.53,0,0,0,12.52,8a11.26,11.26,0,0,1-2.1-.68A7.87,7.87,0,0,1,13.9,5.29ZM9.23,8.91a12.63,12.63,0,0,0,2.85,1,17.31,17.31,0,0,0-.23,2H8.21a7.92,7.92,0,0,1,1-3Z">
</path>
<path d="M19.56,25.78a13.32,13.32,0,0,0,4.49-2.19L25.51,25l1.35-1.35-1.35-1.35h0L24.17,21v0A11.44,11.44,0,0,1,8,4.82L6.64,3.47h0L5.29,2.13,3.94,3.47,5.4,4.93a13.56,13.56,0,0,0-.89,1.33A13.32,13.32,0,0,0,15.15,26.21v2H11.32v1.91h9.56V28.16H17.05V26.21A13.47,13.47,0,0,0,19.56,25.78Z">
</path>
</svg>